<?xml version="1.0" encoding="utf-8"?>
<!-- Generator: Adobe Illustrator 17.0.0, SVG Export Plug-In . SVG Version: 6.00 Build 0)  -->
<!DOCTYPE svg PUBLIC "-//W3C//DTD SVG 1.1//EN" "http://www.w3.org/Graphics/SVG/1.1/DTD/svg11.dtd">
<svg version="1.1" id="Layer_1" xmlns="http://www.w3.org/2000/svg" xmlns:xlink="http://www.w3.org/1999/xlink" x="0px" y="0px"
	 width="250px" height="88.764px" viewBox="0 0 250 88.764" enable-background="new 0 0 250 88.764" xml:space="preserve">
<g>
	<path fill="#F79432" d="M41.889,79.869c-19.031,0.223-30.633-5.137-37.882-9.005c-0.43-0.23-1.493-0.892-1.493,1.181
		c0,1.134,1.493,2.268,1.493,2.268c9.16,8.398,22.835,13.444,37.879,13.451c15.415,0.004,29.545-5.492,38.771-14.569
		c0,0,1.293-1.15,1.293-2.005c0-1.691-0.897-1.357-1.293-1.184C73.305,73.179,61.954,79.632,41.889,79.869"/>
	<path fill="#3CC0C6" d="M31.063,24.205c-1.965,1.519-2.95,4.068-2.953,7.644L28.005,44.48c0,2.501-0.24,4.513-0.719,6.032
		c-0.48,1.523-1.117,2.697-1.924,3.535c-0.803,0.83-1.698,1.397-2.68,1.694c-0.986,0.297-1.984,0.446-2.998,0.446
		c-1.016,0-2.012-0.149-2.997-0.446c-0.983-0.3-1.877-0.864-2.68-1.701c-0.803-0.837-1.445-2.012-1.921-3.534
		c-0.477-1.522-0.712-3.533-0.712-6.035l-0.085-13.863c0-1.786,0.013-3.248,0.047-4.378c0.031-1.131,0.074-2.028,0.135-2.683
		c0.057-0.716,0.122-1.252,0.182-1.61c-3.7,0-6.515,0.759-8.452,2.279c-1.941,1.519-2.91,4.064-2.91,7.642L0.197,44.466
		c-0.003,3.99,0.574,7.241,1.735,9.745c1.165,2.505,2.684,4.473,4.56,5.904c1.877,1.431,3.977,2.417,6.302,2.953
		c2.322,0.537,4.621,0.807,6.886,0.807c2.261,0.005,4.561-0.262,6.886-0.799c2.323-0.537,4.425-1.519,6.302-2.947
		c1.88-1.432,3.416-3.396,4.611-5.901c1.191-2.504,1.788-5.752,1.792-9.748V21.936C35.719,21.973,32.978,22.726,31.063,24.205z"/>
	<path fill="#F79432" d="M96.554,18.975c-0.094,0-0.176-0.049-0.219-0.129c-0.213-0.388-5.219-9.512-5.219-12.408
		C91.115,3.439,93.553,1,96.554,1c2.997,0,5.438,2.439,5.438,5.438c0,2.896-5.006,12.02-5.222,12.408
		C96.726,18.926,96.645,18.975,96.554,18.975z"/>
	<path fill="#3CC0C6" d="M147.198,60.262c-0.536,0.537-1.134,1.017-1.789,1.432c-0.537,0.357-1.165,0.671-1.876,0.938
		c-0.716,0.267-1.431,0.402-2.147,0.402c-2.147,0-3.997-0.729-5.543-2.188c-1.553-1.461-2.984-3.146-4.293-5.056
		c-0.716-1.07-1.492-2.235-2.326-3.484c-0.833-1.256-1.637-2.445-2.413-3.578c-0.776-1.134-1.475-2.174-2.103-3.133
		c-0.624-0.952-1.117-1.667-1.475-2.143c-0.952,0.776-1.833,1.509-2.636,2.19c-0.806,0.688-1.505,1.269-2.099,1.742v7.156
		c0,1.789,0.013,3.247,0.044,4.381c0.027,1.134,0.074,2.026,0.135,2.68c0.057,0.715,0.118,1.256,0.176,1.614
		c-3.696,0-6.511-0.777-8.448-2.33c-1.938-1.546-2.907-4.081-2.907-7.598v-42.14c0-3.578,1.192-6.282,3.042-7.801
		c1.846-1.521,4.618-2.281,8.314-2.281c-0.058,0.357-0.119,0.896-0.176,1.609c-0.06,0.659-0.107,1.551-0.135,2.684
		c-0.03,1.132-0.044,2.592-0.044,4.379v24.592c0.895-0.655,1.832-1.37,2.815-2.147c0.982-0.773,1.937-1.549,2.859-2.325
		c0.926-0.774,1.819-1.489,2.683-2.147c0.865-0.654,1.596-1.222,2.191-1.694c2.383-1.911,4.368-3.147,5.948-3.714
		c1.576-0.567,2.966-0.908,4.158-1.027c1.431-0.12,2.576,0,3.443,0.357c0.861,0.356,1.533,0.775,2.009,1.251
		c0.597,0.597,1.017,1.252,1.252,1.964c-0.476,0.357-1.205,0.942-2.191,1.749c-0.982,0.803-2.129,1.742-3.439,2.815
		c-1.313,1.074-2.744,2.251-4.293,3.531c-1.549,1.282-3.129,2.578-4.739,3.888l9.924,14.576L147.198,60.262z"/>
	<path fill="#3CC0C6" d="M210.94,41.165c0-3.993,0.579-7.257,1.744-9.792c1.162-2.531,2.65-4.516,4.469-5.948
		c1.82-1.431,3.875-2.397,6.17-2.903c2.296-0.508,4.605-0.761,6.931-0.761c2.264,0,4.56,0.253,6.886,0.761
		c2.322,0.506,4.427,1.472,6.3,2.903c1.882,1.432,3.401,3.416,4.562,5.948c1.163,2.535,1.746,5.799,1.746,9.792l0.357,22.532
		c-3.636,0-6.437-0.774-8.406-2.323c-1.966-1.553-2.952-4.085-2.952-7.602l0.091-12.608c0-2.504-0.258-4.517-0.76-6.039
		c-0.509-1.519-1.177-2.707-2.011-3.574c-0.838-0.861-1.76-1.446-2.772-1.745c-1.016-0.297-2.029-0.445-3.04-0.445
		c-1.017,0-2.012,0.148-2.994,0.445c-0.985,0.3-1.88,0.885-2.685,1.745c-0.802,0.867-1.461,2.055-1.967,3.574
		c-0.507,1.522-0.76,3.535-0.76,6.039v13.86c0.057,1.785,0.104,3.25,0.135,4.382c0.027,1.13,0.07,2.028,0.131,2.683
		c0.06,0.715,0.122,1.249,0.18,1.607c-3.695,0-6.528-0.774-8.493-2.323c-1.968-1.553-2.95-4.085-2.95-7.602L210.94,41.165z"/>
	<path fill="#3CC0C6" d="M205.013,52.037l-0.047-11.219c-0.18-5.847-1.926-10.583-5.252-14.201
		c-1.669-1.729-3.638-3.085-5.904-4.068c-2.264-0.984-4.768-1.476-7.51-1.476h-0.759c-0.213,0-0.463,0.032-0.759,0.091
		c-2.863,0.177-5.502,0.849-7.916,2.013c-2.413,1.161-4.517,2.694-6.302,4.604c0,0-0.263,0.29-0.255,0.371
		c0.03,0.283,1.377,3.861,11.187,1.215c3.027-0.817,9.761-1.006,12.046,4.314c0.615,1.424,0.989,3.071,1.165,4.917
		c-2.803-0.894-5.752-1.34-8.851-1.34c-2.207,0-4.324,0.254-6.349,0.76c-2.028,0.506-3.844,1.266-5.458,2.279
		c-1.727,1.134-3.007,2.477-3.842,4.023c-0.955,1.553-1.431,3.491-1.431,5.813v0.54c0.058,2.501,0.655,4.617,1.789,6.346
		c0.774,1.37,1.729,2.491,2.863,3.356c1.128,0.864,2.383,1.563,3.753,2.1c1.31,0.594,2.653,0.999,4.024,1.208
		c1.371,0.21,2.683,0.311,3.936,0.311h1.161c0.358,0,0.715-0.031,1.074-0.088c2.683-0.296,5.11-1.043,7.287-2.234
		c0.612-0.337,1.192-0.706,1.749-1.094c0.112,0.135,0.213,0.274,0.331,0.402c0.925,1.016,2.07,1.806,3.442,2.369
		c1.375,0.564,2.982,0.76,4.83,0.581V52.037z M194.347,48.436c-0.236,1.192-0.685,2.356-1.341,3.487
		c-0.298,0.597-0.657,1.148-1.073,1.654c-0.418,0.506-0.924,0.938-1.522,1.297c-1.248,0.897-2.71,1.37-4.377,1.431
		c-0.24,0.061-0.598,0.088-1.074,0.088c-1.553,0-2.788-0.209-3.712-0.622c-0.925-0.418-1.623-0.924-2.1-1.522
		c-0.537-0.597-0.894-1.239-1.073-1.92c-0.179-0.689-0.271-1.33-0.271-1.925c0-0.357,0.03-0.628,0.092-0.803
		c0.058-0.54,0.179-1.03,0.358-1.478c0.179-0.446,0.415-0.851,0.715-1.208c0.774-1.013,1.907-1.755,3.396-2.235
		c0.655-0.237,1.371-0.402,2.147-0.493c0.777-0.088,1.58-0.132,2.417-0.132c1.009,0,2.012,0.057,2.993,0.179
		c0.983,0.121,1.86,0.236,2.636,0.358c0.418,0.121,0.774,0.208,1.074,0.27c0.298,0.057,0.567,0.114,0.804,0.175
		c0.06,0,0.108,0.014,0.138,0.048c0.032,0.027,0.07,0.04,0.132,0.04C194.705,46.145,194.583,47.245,194.347,48.436z"/>
	<path fill="#3CC0C6" d="M162.887,52.088V10.865c0-3.516-0.981-6.048-2.949-7.6c-1.968-1.549-4.8-2.324-8.496-2.324
		c0.06,0.417,0.118,0.984,0.179,1.698c0.061,0.658,0.104,1.536,0.135,2.638c0.03,1.104,0.074,2.549,0.135,4.338v43.548
		c0,1.488,0.223,2.92,0.668,4.29c0.449,1.374,1.131,2.565,2.056,3.577c0.925,1.013,2.072,1.803,3.443,2.37
		c1.374,0.567,2.981,0.763,4.83,0.581V52.088z"/>
	<path fill="#3CC0C6" d="M101.557,52.034V30.664c0-1.788,0.014-3.234,0.044-4.338c0.03-1.103,0.074-1.981,0.135-2.636
		c0.057-0.716,0.118-1.282,0.179-1.701c-3.7,0-6.498,0.776-8.405,2.325c-1.911,1.55-2.951,3.723-2.951,7.298v21.495
		c0,1.489,0.223,2.92,0.669,4.29c0.449,1.374,1.134,2.565,2.059,3.578c0.922,1.013,2.07,1.803,3.44,2.37
		c1.371,0.567,2.98,0.763,4.83,0.581V52.034z"/>
	<path fill="#3CC0C6" d="M84.293,39.555c0,0-0.011-0.017-0.018-0.026c-0.158-3.178-0.732-5.832-1.737-7.946
		c-1.195-2.505-2.731-4.469-4.611-5.901c-1.877-1.428-3.979-2.41-6.302-2.947c-2.325-0.537-4.625-0.804-6.886-0.799
		c-2.265,0-4.564,0.27-6.886,0.807c-0.478,0.11-0.939,0.252-1.398,0.4l-0.038-12.087c-0.003-3.576-0.988-6.125-2.953-7.644
		c-1.915-1.478-4.656-2.231-8.209-2.269V44.45c0.003,3.996,0.6,7.244,1.792,9.748c1.195,2.505,2.731,4.469,4.611,5.901
		c1.877,1.428,3.98,2.41,6.302,2.947c2.326,0.537,4.625,0.804,6.886,0.799c2.265,0,4.564-0.27,6.886-0.807
		c2.326-0.537,4.425-1.522,6.302-2.953c1.877-1.431,3.396-3.399,4.561-5.904c1.161-2.504,1.738-5.755,1.734-9.745L84.293,39.555z
		 M72.441,50.475c-0.475,1.523-1.117,2.697-1.92,3.534c-0.803,0.837-1.698,1.401-2.68,1.701c-0.985,0.297-1.981,0.446-2.998,0.446
		c-1.013,0-2.011-0.149-2.997-0.446c-0.982-0.296-1.876-0.864-2.68-1.694c-0.807-0.838-1.444-2.012-1.924-3.535
		c-0.48-1.519-0.719-3.531-0.719-6.032l-0.017-5.335c0.102-1.498,0.313-2.769,0.639-3.809c0.475-1.523,1.117-2.697,1.921-3.534
		c0.803-0.837,1.698-1.401,2.68-1.701c0.985-0.297,1.981-0.446,2.997-0.446c1.013,0,2.012,0.149,2.998,0.446
		c0.982,0.296,1.876,0.864,2.68,1.694c0.807,0.838,1.436,2.015,1.924,3.535c0.809,2.518,0.809,9.141,0.809,9.141
		C73.154,46.942,72.918,48.953,72.441,50.475z"/>
</g>
</svg>
